<?xml version="1.0" encoding="UTF-8"?><svg id="Ebene_1" xmlns="http://www.w3.org/2000/svg" viewBox="0 0 1080 1080"><defs><style>.cls-1{fill:#fae5d0;}</style></defs><path class="cls-1" d="m540,1056.74c-284.93,0-516.74-231.81-516.74-516.74S255.06,23.26,540,23.26s516.74,231.81,516.74,516.74-231.81,516.74-516.74,516.74Zm0-972.63c-251.39,0-455.9,204.51-455.9,455.9s204.51,455.89,455.9,455.89,455.89-204.5,455.89-455.89S791.39,84.11,540,84.11Z"/><path class="cls-1" d="m793.83,659.62v-191.83h-128.14l-79.5,66.36-40.74,34.47-66.56-81.61,136.69-109.71h-135.34l-128.69,110.47v-230.2h-97.22v415.79h97.22v-85.08l51.66-41.08,59.31,75.15-50.73,40.34.39,68.83h283.08v77.71h98.58v-77.71h73.7v-71.91h-73.7Zm-98.58-87.13v87.13h-130.23l107.9-90.64,22.34-18.78v22.29Z"/></svg>